<svg width="672.5" height="1120.0" viewBox="0 0 672.5 1120.0" xmlns="http://www.w3.org/2000/svg">
<style>
    svg {
        font-family: SFMono-Regular,Consolas,Liberation Mono,Menlo,monospace;
        font-size: 14px;
        font-kerning: normal;
        text-rendering: optimizeLegibility;
        fill: #24292e;
    }

    rect {
        fill: #f6f8fa;
        width: 55px;
        height: 45px;
        rx: 6px;
        ry: 6px;
    }

    text {
        dominant-baseline: middle;
        text-anchor: middle;
    }

    .held {
        fill: #fdd;
    }
</style>

<rect x="29.5"  y="24.5" class="" />
<text x="57.0"  y="47.0">q</text>
<rect x="88.5"  y="24.5" class="" />
<text x="116.0" y="47.0">w</text>
<rect x="147.5" y="24.5" class="" />
<text x="175.0" y="47.0">e</text>
<rect x="206.5" y="24.5" class="" />
<text x="234.0" y="47.0">r</text>
<rect x="265.5" y="24.5" class="" />
<text x="293.0" y="47.0">t</text>

<rect x="29.5"  y="73.5" class="" />
<text x="57.0"  y="96.0">a</text>
<rect x="88.5"  y="73.5" class="" />
<text x="116.0" y="96.0">s</text>
<rect x="147.5" y="73.5" class="" />
<text x="175.0" y="96.0">d</text>
<rect x="206.5" y="73.5" class="" />
<text x="234.0" y="96.0">f</text>
<rect x="265.5" y="73.5" class="" />
<text x="293.0" y="96.0">g</text>

<rect x="29.5"  y="122.5" class="" />
<text x="57.0"  y="145.0">z</text>
<rect x="88.5"  y="122.5" class="" />
<text x="116.0" y="145.0">x</text>
<rect x="147.5" y="122.5" class="" />
<text x="175.0" y="145.0">c</text>
<rect x="206.5" y="122.5" class="" />
<text x="234.0" y="145.0">v</text>
<rect x="265.5" y="122.5" class="" />
<text x="293.0" y="145.0">b</text>

<rect x="352.0" y="24.5" class="" />
<text x="379.5" y="47.0">y</text>
<rect x="411.0" y="24.5" class="" />
<text x="438.5" y="47.0">u</text>
<rect x="470.0" y="24.5" class="" />
<text x="497.5" y="47.0">i</text>
<rect x="529.0" y="24.5" class="" />
<text x="556.5" y="47.0">o</text>
<rect x="588.0" y="24.5" class="" />
<text x="615.5" y="47.0">p</text>

<rect x="352.0" y="73.5" class="" />
<text x="379.5" y="96.0">h</text>
<rect x="411.0" y="73.5" class="" />
<text x="438.5" y="96.0">j</text>
<rect x="470.0" y="73.5" class="" />
<text x="497.5" y="96.0">k</text>
<rect x="529.0" y="73.5" class="" />
<text x="556.5" y="96.0">l</text>
<rect x="588.0" y="73.5" class="" />
<text x="615.5" y="96.0">;</text>

<rect x="352.0" y="122.5" class="" />
<text x="379.5" y="145.0">n</text>
<rect x="411.0" y="122.5" class="" />
<text x="438.5" y="145.0">m</text>
<rect x="470.0" y="122.5" class="" />
<text x="497.5" y="145.0">,</text>
<rect x="529.0" y="122.5" class="" />
<text x="556.5" y="145.0">.</text>
<rect x="588.0" y="122.5" class="" />
<text x="615.5" y="145.0">/</text>

<rect x="206.5" y="171.5" class="" />
<text x="234.0" y="194.0">nav</text>
<rect x="265.5" y="171.5" class="" />
<text x="293.0" y="194.0">shift</text>

<rect x="352.0" y="171.5" class="" />
<text x="379.5" y="194.0">space</text>
<rect x="411.0" y="171.5" class="" />
<text x="438.5" y="194.0">sym</text>


<rect x="29.5"  y="243.0" class="" />
<text x="57.0"  y="265.5">!</text>
<rect x="88.5"  y="243.0" class="" />
<text x="116.0" y="265.5">@</text>
<rect x="147.5" y="243.0" class="" />
<text x="175.0" y="265.5">#</text>
<rect x="206.5" y="243.0" class="" />
<text x="234.0" y="265.5">$</text>
<rect x="265.5" y="243.0" class="" />
<text x="293.0" y="265.5">(</text>

<rect x="29.5"  y="292.0" class="" />
<text x="57.0"  y="314.5">~</text>
<rect x="88.5"  y="292.0" class="" />
<text x="116.0" y="314.5">_</text>
<rect x="147.5" y="292.0" class="" />
<text x="175.0" y="314.5">|</text>
<rect x="206.5" y="292.0" class="" />
<text x="234.0" y="314.5">\</text>
<rect x="265.5" y="292.0" class="" />
<text x="293.0" y="314.5">{</text>

<rect x="29.5"  y="341.0" class="" />
<text x="57.0"  y="363.5">+</text>
<rect x="88.5"  y="341.0" class="" />
<text x="116.0" y="363.5">-</text>
<rect x="147.5" y="341.0" class="" />
<text x="175.0" y="363.5">*</text>
<rect x="206.5" y="341.0" class="" />
<text x="234.0" y="363.5">=</text>
<rect x="265.5" y="341.0" class="" />
<text x="293.0" y="363.5">[</text>

<rect x="352.0" y="243.0" class="" />
<text x="379.5" y="265.5">)</text>
<rect x="411.0" y="243.0" class="" />
<text x="438.5" y="265.5">&amp;</text>
<rect x="470.0" y="243.0" class="" />
<text x="497.5" y="265.5">`</text>
<rect x="529.0" y="243.0" class="" />
<text x="556.5" y="265.5">^</text>
<rect x="588.0" y="243.0" class="" />
<text x="615.5" y="265.5">%</text>

<rect x="352.0" y="292.0" class="" />
<text x="379.5" y="314.5">}</text>
<rect x="411.0" y="292.0" class="" />
<text x="438.5" y="314.5"></text>
<rect x="470.0" y="292.0" class="" />
<text x="497.5" y="314.5">´</text>
<rect x="529.0" y="292.0" class="" />
<text x="556.5" y="314.5">'</text>
<rect x="588.0" y="292.0" class="" />
<text x="615.5" y="314.5">"</text>

<rect x="352.0" y="341.0" class="" />
<text x="379.5" y="363.5">]</text>
<rect x="411.0" y="341.0" class="" />
<text x="438.5" y="363.5">¨</text>
<rect x="470.0" y="341.0" class="" />
<text x="497.5" y="363.5">æ</text>
<rect x="529.0" y="341.0" class="" />
<text x="556.5" y="363.5">ø</text>
<rect x="588.0" y="341.0" class="" />
<text x="615.5" y="363.5">å</text>




<rect x="206.5" y="390.0" class="" />
<text x="234.0" y="412.5">nav</text>
<rect x="265.5" y="390.0" class="" />
<text x="293.0" y="412.5">shift</text>

<rect x="352.0" y="390.0" class="" />
<text x="379.5" y="412.5">space</text>
<rect x="411.0" y="390.0" class="held" />
<text x="438.5" y="412.5">sym</text>



<rect x="29.5"  y="461.5" class="" />
<text x="57.0"  y="484.0">1</text>
<rect x="88.5"  y="461.5" class="" />
<text x="116.0" y="484.0">2</text>
<rect x="147.5" y="461.5" class="" />
<text x="175.0" y="484.0">3</text>
<rect x="206.5" y="461.5" class="" />
<text x="234.0" y="484.0">4</text>
<rect x="265.5" y="461.5" class="" />
<text x="293.0" y="484.0">5</text>

<rect x="29.5"  y="510.5" class="" />
<text x="57.0"  y="533.0">shift</text>
<rect x="88.5"  y="510.5" class="" />
<text x="116.0" y="533.0">ctrl</text>
<rect x="147.5" y="510.5" class="" />
<text x="175.0" y="533.0">alt</text>
<rect x="206.5" y="510.5" class="" />
<text x="234.0" y="533.0">cmd</text>
<rect x="265.5" y="510.5" class="" />
<text x="293.0" y="533.0">tab</text>

<rect x="29.5"  y="559.5" class="" />
<text x="57.0"  y="582.0">undo</text>
<rect x="88.5"  y="559.5" class="" />
<text x="116.0" y="582.0">cut</text>
<rect x="147.5" y="559.5" class="" />
<text x="175.0" y="582.0">copy</text>
<rect x="206.5" y="559.5" class="" />
<text x="234.0" y="582.0">paste</text>
<rect x="265.5" y="559.5" class="" />
<text x="293.0" y="582.0">esc</text>

<rect x="352.0" y="461.5" class="" />
<text x="379.5" y="484.0">6</text>
<rect x="411.0" y="461.5" class="" />
<text x="438.5" y="484.0">7</text>
<rect x="470.0" y="461.5" class="" />
<text x="497.5" y="484.0">8</text>
<rect x="529.0" y="461.5" class="" />
<text x="556.5" y="484.0">9</text>
<rect x="588.0" y="461.5" class="" />
<text x="615.5" y="484.0">0</text>

<rect x="352.0" y="510.5" class="" />
<text x="379.5" y="533.0">left</text>
<rect x="411.0" y="510.5" class="" />
<text x="438.5" y="533.0">down</text>
<rect x="470.0" y="510.5" class="" />
<text x="497.5" y="533.0">up</text>
<rect x="529.0" y="510.5" class="" />
<text x="556.5" y="533.0">right</text>
<rect x="588.0" y="510.5" class="" />
<text x="615.5" y="533.0">bcksp</text>

<rect x="352.0" y="559.5" class="" />
<text x="379.5" y="582.0">home</text>
<rect x="411.0" y="559.5" class="" />
<text x="438.5" y="582.0">pgdn</text>
<rect x="470.0" y="559.5" class="" />
<text x="497.5" y="582.0">pgup</text>
<rect x="529.0" y="559.5" class="" />
<text x="556.5" y="582.0">end</text>
<rect x="588.0" y="559.5" class="" />
<text x="615.5" y="582.0">enter</text>


<rect x="206.5" y="608.5" class="held" />
<text x="234.0" y="631.0">nav</text>
<rect x="265.5" y="608.5" class="" />
<text x="293.0" y="631.0">shift</text>

<rect x="352.0" y="608.5" class="" />
<text x="379.5" y="631.0">space</text>
<rect x="411.0" y="608.5" class="" />
<text x="438.5" y="631.0">sym</text>


<rect x="29.5"  y="680.0" class="" />
<text x="57.0"  y="702.5">reset</text>
<rect x="88.5"  y="680.0" class="" />
<text x="116.0" y="702.5"></text>
<rect x="147.5" y="680.0" class="" />
<text x="175.0" y="702.5"></text>
<rect x="206.5" y="680.0" class="" />
<text x="234.0" y="702.5"></text>
<rect x="265.5" y="680.0" class="" />
<text x="293.0" y="702.5">volup</text>

<rect x="29.5"  y="729.0" class="" />
<text x="57.0"  y="751.5">shift</text>
<rect x="88.5"  y="729.0" class="" />
<text x="116.0" y="751.5">ctrl</text>
<rect x="147.5" y="729.0" class="" />
<text x="175.0" y="751.5">alt</text>
<rect x="206.5" y="729.0" class="" />
<text x="234.0" y="751.5">cmd</text>
<rect x="265.5" y="729.0" class="" />
<text x="293.0" y="751.5">voldn</text>

<rect x="29.5"  y="778.0" class="" />
<text x="57.0"  y="800.5">mactg</text>
<rect x="88.5"  y="778.0" class="" />
<text x="116.0" y="800.5"></text>
<rect x="147.5" y="778.0" class="" />
<text x="175.0" y="800.5"></text>
<rect x="206.5" y="778.0" class="" />
<text x="234.0" y="800.5"></text>
<rect x="265.5" y="778.0" class="" />
<text x="293.0" y="800.5"></text>

<rect x="352.0" y="680.0" class="" />
<text x="379.5" y="702.5">f1</text>
<rect x="411.0" y="680.0" class="" />
<text x="438.5" y="702.5">f2</text>
<rect x="470.0" y="680.0" class="" />
<text x="497.5" y="702.5">f3</text>
<rect x="529.0" y="680.0" class="" />
<text x="556.5" y="702.5">f4</text>
<rect x="588.0" y="680.0" class="" />
<text x="615.5" y="702.5">f5</text>

<rect x="352.0" y="729.0" class="" />
<text x="379.5" y="751.5">f6</text>
<rect x="411.0" y="729.0" class="" />
<text x="438.5" y="751.5">f7</text>
<rect x="470.0" y="729.0" class="" />
<text x="497.5" y="751.5">f8</text>
<rect x="529.0" y="729.0" class="" />
<text x="556.5" y="751.5">f9</text>
<rect x="588.0" y="729.0" class="" />
<text x="615.5" y="751.5">f10</text>

<rect x="352.0" y="778.0" class="" />
<text x="379.5" y="800.5">f11</text>
<rect x="411.0" y="778.0" class="" />
<text x="438.5" y="800.5">f12</text>
<rect x="470.0" y="778.0" class="" />
<text x="497.5" y="800.5"></text>
<rect x="529.0" y="778.0" class="" />
<text x="556.5" y="800.5"></text>
<rect x="588.0" y="778.0" class="" />
<text x="615.5" y="800.5"></text>


<rect x="206.5" y="827.0" class="held" />
<text x="234.0" y="849.5">nav</text>
<rect x="265.5" y="827.0" class="" />
<text x="293.0" y="849.5">tab</text>

<rect x="352.0" y="827.0" class="" />
<text x="379.5" y="849.5">space</text>
<rect x="411.0" y="827.0" class="held" />
<text x="438.5" y="849.5">sym</text>

</svg>
